<?xml version="1.0" standalone="no"?>
<!DOCTYPE svg PUBLIC "-//W3C//DTD SVG 20010904//EN"
 "http://www.w3.org/TR/2001/REC-SVG-20010904/DTD/svg10.dtd">
<svg version="1.0" xmlns="http://www.w3.org/2000/svg"
 width="500.000000pt" height="500.000000pt" viewBox="0 0 500.000000 500.000000"
 preserveAspectRatio="xMidYMid meet">

<g transform="translate(0.000000,500.000000) scale(0.100000,-0.100000)"
fill="#000000" stroke="none">
<path d="M2443 3715 c-132 -37 -249 -134 -310 -256 -34 -70 -73 -197 -73 -241
0 -20 -8 -31 -29 -43 -99 -51 -107 -195 -15 -281 40 -38 44 -46 54 -114 15
-105 29 -158 60 -223 81 -168 202 -245 370 -235 99 6 172 41 260 125 73 68
182 221 225 316 25 54 46 70 61 46 10 -16 -69 -167 -135 -256 -123 -167 -238
-251 -379 -275 -200 -34 -394 97 -466 314 -20 60 -46 185 -46 220 0 18 -7 29
-20 33 -11 3 -29 20 -41 36 -20 28 -24 30 -68 24 -146 -21 -280 -91 -376 -197
-63 -69 -81 -111 -200 -463 -115 -339 -215 -808 -200 -930 4 -27 17 -73 30
-102 13 -28 21 -54 17 -57 -3 -3 -85 -6 -182 -6 -196 0 -213 -5 -213 -58 0
-67 -154 -62 1748 -62 1824 0 1740 -2 1745 45 4 32 1 43 -16 59 -13 13 -46 16
-205 16 -104 0 -189 2 -189 3 0 2 14 33 32 68 56 111 51 254 -14 456 -56 173
-258 553 -441 830 -45 67 -144 170 -187 193 -16 9 -20 4 -29 -40 -13 -59 -38
-112 -93 -193 -22 -32 -37 -64 -35 -70 4 -10 324 -457 377 -527 99 -131 220
-308 220 -323 0 -33 -33 -14 -75 45 -22 31 -101 141 -176 245 -75 103 -191
265 -258 358 -67 94 -126 171 -131 173 -10 4 -290 -185 -290 -195 0 -5 26 -54
168 -323 24 -47 48 -89 52 -95 4 -5 21 -35 37 -65 59 -110 157 -265 172 -274
33 -20 107 -103 125 -140 20 -42 17 -96 -6 -123 -30 -36 -96 -53 -209 -53
-107 0 -150 8 -313 56 -60 17 -56 17 -56 0 0 -23 -25 -38 -38 -24 -7 9 -6 32
5 78 11 46 13 92 9 160 -8 141 -5 136 -94 149 -253 36 -684 71 -866 71 -96 0
-126 3 -136 15 -17 21 -4 35 34 35 l33 0 28 98 c56 203 110 365 123 370 29 11
34 -15 14 -75 -20 -56 -60 -187 -100 -325 l-20 -67 62 -5 c33 -3 147 -10 251
-16 209 -12 637 -57 672 -71 13 -5 23 -13 23 -18 0 -6 20 -8 48 -4 55 6 206
-12 264 -31 21 -8 38 -11 38 -9 0 3 -24 46 -54 97 -131 223 -316 575 -316 601
0 7 76 66 170 130 147 100 176 124 211 176 70 103 89 158 89 254 0 46 -5 96
-12 110 -10 23 -17 26 -50 23 -30 -3 -37 0 -33 10 3 8 1 20 -4 26 -13 15 -131
252 -131 263 -1 30 -18 32 -71 5 -87 -45 -143 -57 -264 -56 -113 1 -175 17
-263 66 l-34 19 -21 -28 c-61 -80 -169 -146 -212 -129 -32 12 -14 34 40 51 41
13 66 30 100 66 25 26 50 60 57 74 6 14 15 25 21 25 5 0 34 -16 65 -35 147
-90 393 -87 520 5 23 16 48 30 56 30 7 0 24 -24 36 -52 12 -29 43 -95 68 -147
51 -106 51 -106 78 22 57 271 -69 516 -311 607 -79 29 -282 38 -362 15z m186
-1218 c18 -22 -8 -37 -63 -37 -28 0 -68 -4 -88 -9 -28 -7 -40 -5 -49 6 -17 20
-3 30 56 41 74 14 131 14 144 -1z"/>
<path d="M2735 1449 c5 -19 8 -80 7 -135 l-1 -101 72 -22 c150 -44 209 -53
302 -49 117 6 155 24 155 74 0 39 -25 82 -75 127 -100 92 -189 126 -354 134
l-113 6 7 -34z"/>
</g>
</svg>
