<?xml version="1.0" standalone="no"?>
<!DOCTYPE svg PUBLIC "-//W3C//DTD SVG 20010904//EN"
 "http://www.w3.org/TR/2001/REC-SVG-20010904/DTD/svg10.dtd">
<svg version="1.0" xmlns="http://www.w3.org/2000/svg"
 width="500.000000pt" height="500.000000pt" viewBox="0 0 500.000000 500.000000"
 preserveAspectRatio="xMidYMid meet">

<g transform="translate(0.000000,500.000000) scale(0.100000,-0.100000)"
fill="#000000" stroke="none">
<path d="M3208 4097 c-35 -14 -42 -66 -17 -126 24 -55 24 -51 -7 -97 -34 -50
-174 -322 -174 -338 0 -6 -29 -56 -65 -110 -36 -54 -65 -102 -65 -106 0 -5
-21 -23 -47 -41 -27 -18 -63 -46 -81 -62 -23 -23 -35 -28 -43 -20 -8 8 -7 17
5 34 18 26 21 121 6 179 -29 114 -44 158 -61 186 -10 17 -19 47 -19 66 0 21
-9 47 -22 64 l-22 28 -6 -24 c-8 -34 -38 -50 -51 -27 -9 16 -13 15 -40 -13
-17 -16 -36 -30 -43 -30 -7 0 -33 -13 -57 -29 -38 -23 -49 -38 -62 -79 -22
-66 -21 -102 2 -154 10 -24 23 -56 28 -73 4 -16 24 -40 43 -53 41 -27 59 -56
60 -94 0 -16 -1 -28 -3 -28 -2 0 -21 9 -43 19 -22 11 -71 29 -109 42 -56 18
-85 35 -147 90 -42 37 -92 76 -110 85 -18 9 -76 61 -128 114 -99 101 -210 200
-225 200 -5 0 -21 12 -36 26 -25 24 -27 31 -22 82 5 52 3 60 -24 90 -43 47
-81 44 -127 -10 -20 -23 -36 -45 -36 -49 0 -25 38 -87 90 -146 33 -37 60 -75
60 -84 0 -24 133 -184 253 -304 61 -60 134 -140 164 -177 47 -60 85 -94 194
-179 22 -17 50 -59 81 -120 96 -193 119 -316 97 -514 -6 -60 -13 -128 -14
-150 -1 -22 -11 -60 -23 -85 -11 -25 -26 -85 -32 -135 -12 -93 -55 -242 -110
-380 -17 -44 -33 -81 -34 -83 -2 -1 -23 16 -47 39 -52 48 -130 95 -179 109
-19 5 -71 32 -115 60 -43 27 -88 50 -100 50 -14 0 -26 14 -43 50 -18 40 -28
50 -47 50 -32 0 -240 -121 -288 -168 -64 -61 -80 -111 -41 -126 7 -3 43 6 79
19 48 19 85 25 140 25 41 0 75 -4 75 -9 0 -5 37 -37 83 -69 45 -33 96 -72 112
-86 70 -62 238 -189 289 -220 102 -61 172 -57 246 16 43 43 140 169 278 366
40 56 76 102 80 102 15 0 191 -248 208 -295 3 -7 -13 -17 -38 -24 -62 -19
-114 -47 -157 -87 -22 -19 -61 -41 -87 -49 -53 -15 -174 -89 -174 -106 0 -6
-24 -7 -66 -3 -51 5 -68 4 -75 -7 -11 -17 -11 -326 0 -392 9 -56 21 -71 49
-63 13 5 24 22 32 54 27 106 87 222 115 222 6 0 34 11 61 25 27 14 105 43 174
66 203 66 372 129 416 157 22 14 51 40 64 59 20 29 22 41 17 96 -16 158 -128
488 -251 737 -31 63 -32 67 -24 145 4 44 11 193 14 332 5 209 3 272 -11 372
l-17 121 51 79 c43 68 74 130 176 356 59 132 105 275 105 329 0 19 9 58 20 86
12 30 20 74 20 109 0 50 -3 61 -22 73 -33 21 -69 27 -100 15z"/>
</g>
</svg>
