<?xml version="1.0" standalone="no"?>
<!DOCTYPE svg PUBLIC "-//W3C//DTD SVG 20010904//EN"
 "http://www.w3.org/TR/2001/REC-SVG-20010904/DTD/svg10.dtd">
<svg version="1.0" xmlns="http://www.w3.org/2000/svg"
 width="500.000000pt" height="500.000000pt" viewBox="0 0 500.000000 500.000000"
 preserveAspectRatio="xMidYMid meet">

<g transform="translate(0.000000,500.000000) scale(0.100000,-0.100000)"
fill="#000000" stroke="none">
<path d="M2365 4270 c-294 -46 -501 -215 -571 -466 -17 -60 -32 -329 -20 -359
5 -14 9 -14 38 1 50 26 97 81 130 150 16 34 35 64 42 67 7 3 49 -6 93 -18 301
-87 571 -38 747 137 38 37 77 68 87 68 11 0 38 -31 74 -87 31 -49 76 -108 98
-131 45 -47 119 -102 136 -102 15 0 14 99 -3 195 -42 235 -154 398 -282 409
-21 2 -46 14 -62 29 -38 36 -118 74 -193 92 -82 19 -237 27 -314 15z"/>
<path d="M2869 3704 c-46 -49 -165 -121 -244 -146 -141 -45 -344 -52 -490 -18
-47 11 -91 20 -98 20 -7 0 -21 -15 -31 -32 -55 -96 -141 -169 -214 -183 -50
-9 -69 -29 -87 -88 -20 -68 -19 -129 5 -222 24 -94 60 -160 100 -180 18 -9 32
-27 36 -43 4 -15 22 -62 39 -104 90 -213 258 -374 455 -435 72 -22 245 -22
317 0 221 67 397 251 485 506 12 37 30 65 53 84 58 47 88 116 106 242 11 69
10 88 -5 139 -11 37 -28 70 -47 87 -22 20 -29 36 -29 63 0 32 -4 38 -42 57
-84 42 -156 109 -234 217 -25 34 -47 62 -48 62 -1 0 -13 -12 -27 -26z"/>
<path d="M1932 2130 c-386 -101 -675 -318 -827 -620 -81 -162 -155 -492 -155
-694 0 -66 3 -77 23 -91 20 -14 168 -15 1523 -15 1147 1 1506 4 1525 13 20 10
25 21 27 62 8 105 -43 410 -93 568 -37 114 -69 181 -129 271 -164 247 -423
418 -765 507 l-114 29 -86 -44 c-146 -74 -289 -102 -443 -85 -111 12 -176 32
-281 85 -48 24 -88 44 -90 44 -1 -1 -53 -14 -115 -30z"/>
</g>
</svg>
