<?xml version="1.0" standalone="no"?>
<!DOCTYPE svg PUBLIC "-//W3C//DTD SVG 20010904//EN"
 "http://www.w3.org/TR/2001/REC-SVG-20010904/DTD/svg10.dtd">
<svg version="1.0" xmlns="http://www.w3.org/2000/svg"
 width="500.000000pt" height="500.000000pt" viewBox="0 0 500.000000 500.000000"
 preserveAspectRatio="xMidYMid meet">

<g transform="translate(0.000000,500.000000) scale(0.100000,-0.100000)"
fill="#000000" stroke="none">
<path d="M1500 4080 c-39 -39 -22 -66 101 -158 61 -46 69 -49 69 -28 0 19 
167 -88 189 -20 23 -57 22 -82 -3z"/>
<path d="M3408 4083 c-21 -26 -92 -192 -85 -199 6 -6 137 87 171 122 22 21 20
50 -4 74 -25 25 -62 26 -82 3z"/>
<path d="M2395 3970 c-27 -4 -75 -16 -105 -27 -51 -18 -55 -21 -65 -64 -14
-63 -24 -76 -80 -103 l-50 -25 51 1 c28 0 60 -5 72 -11 27 -14 38 -71 22 -110
-12 -30 -20 -35 -112 -75 -82 -35 -90 -53 -93 -194 -1 -64 -7 -133 -14 -153
-19 -62 -66 -117 -110 -130 -47 -14 -55 -35 -45 -112 9 -68 43 -145 82 -182
23 -23 38 -53 57 -119 97 -335 263 -497 494 -484 185 11 333 155 420 410 16
46 32 99 36 118 4 19 24 53 45 76 45 49 79 136 83 210 2 46 -1 57 -18 66 -54
31 -88 94 -110 201 -4 21 -11 27 -33 27 -15 0 -63 16 -107 36 -44 19 -86 38
-92 41 -9 4 -12 -9 -10 -49 2 -50 1 -53 -22 -53 -13 0 -62 28 -112 65 -75 54
-89 69 -86 90 3 37 31 36 79 -3 68 -54 68 -54 61 1 -4 38 -2 50 9 55 8 3 54
-15 103 -40 99 -51 193 -86 207 -77 11 7 3 89 -12 129 -9 23 -96 75 -125 75
-6 0 -26 13 -45 29 -29 24 -35 35 -35 71 0 63 36 90 117 90 l60 0 -62 46 c-42
31 -67 58 -79 84 -17 41 -42 55 -136 79 -59 15 -183 21 -240 11z m15 -836 c0
-7 -16 -25 -35 -40 -58 -44 -207 -44 -244 -1 -8 10 3 13 47 13 69 0 127 16
173 48 30 21 35 22 47 8 6 -9 12 -21 12 -28z m189 32 c24 -28 115 -59 178 -60
35 -1 63 -5 63 -9 0 -16 -70 -37 -122 -37 -55 0 -123 25 -147 53 -8 10 -11 27
-7 42 7 28 18 32 35 11z m39 -716 c34 -21 43 -54 16 -64 -10 -4 -25 1 -37 11
-16 15 -38 18 -137 18 -103 0 -121 -3 -139 -19 -21 -19 -22 -19 -39 -2 -16 16
-15 19 16 47 32 29 33 29 160 29 109 0 132 -3 160 -20z"/>
<path d="M1985 3922 c-144 -96 -142 -93 -225 -312 -29 -74 -59 -142 -68 -151
-9 -9 -89 -58 -177 -109 -88 -51 -180 -105 -205 -120 -25 -15 -101 -60 -170
-100 -69 -40 -168 -99 -220 -130 -52 -31 -149 -87 -215 -125 -65 -39 -134 -85
-153 -104 -41 -41 -80 -121 -88 -183 -12 -87 29 -199 95 -262 17 -16 252 -141
523 -277 l493 -247 9 -386 9 -386 847 0 847 0 7 298 c4 163 9 328 13 365 l6
68 51 23 c28 13 96 45 151 71 55 26 195 91 310 145 578 269 599 281 653 385
22 43 26 63 26 140 1 101 -19 156 -78 218 -23 26 -575 369 -741 461 -11 6
-102 60 -202 121 l-181 109 -32 81 c-18 44 -45 115 -61 159 -41 111 -62 141
-148 204 l-76 57 -75 0 c-68 0 -75 -2 -78 -21 -2 -15 16 -34 78 -78 83 -60
130 -110 130 -139 0 -26 -15 -28 -76 -12 -64 17 -132 19 -152 6 -8 -4 -12 -18
-10 -31 2 -16 19 -29 66 -48 130 -56 152 -93 152 -259 0 -158 38 -232 128
-249 39 -8 53 -18 302 -229 85 -71 195 -164 245 -206 50 -42 96 -84 104 -92
15 -19 30 -16 -284 -57 -126 -17 -261 -35 -300 -40 -38 -6 -119 -17 -180 -26
-60 -8 -110 -16 -111 -17 0 -1 -14 -26 -29 -55 -100 -185 -296 -292 -485 -263
-39 6 -87 18 -106 26 -80 33 -188 128 -234 205 -54 89 -9 76 -645 190 -126 22
-238 44 -248 48 -18 7 58 72 538 462 56 46 95 69 130 78 98 26 116 62 125 247
5 93 12 148 21 163 16 27 87 73 142 93 46 16 60 31 51 54 -6 15 -17 16 -83 11
-42 -3 -93 -8 -113 -12 -34 -5 -38 -4 -38 14 0 34 42 73 126 116 72 38 79 44
82 74 5 49 -11 62 -77 61 -43 0 -65 -7 -96 -27z"/>
<path d="M3693 3685 c-94 -71 -118 -93 -113 -99 4 -3 53 2 109 11 109 17 141
34 141 73 0 25 -34 60 -59 60 -10 0 -45 -20 -78 -45z"/>
<path d="M1176 3698 c-19 -27 -20 -48 -3 -72 15 -21 237 -60 237 -41 0 6 -38
39 -84 73 -91 67 -125 76 -150 40z"/>
</g>
</svg>
