<?xml version="1.0" standalone="no"?>
<!DOCTYPE svg PUBLIC "-//W3C//DTD SVG 20010904//EN"
 "http://www.w3.org/TR/2001/REC-SVG-20010904/DTD/svg10.dtd">
<svg version="1.0" xmlns="http://www.w3.org/2000/svg"
 width="234.000000pt" height="234.000000pt" viewBox="0 0 234.000000 234.000000"
 preserveAspectRatio="xMidYMid meet">

<g transform="translate(0.000000,234.000000) scale(0.100000,-0.100000)"
fill="#000000" stroke="none">
<path d="M276 2244 c-94 -30 -169 -94 -210 -183 -20 -44 -21 -60 -21 -462 l0
-415 30 -59 c39 -77 111 -136 195 -161 l63 -19 -7 -147 c-12 -248 2 -249 223
-19 l162 170 402 3 402 3 52 27 c94 50 150 124 172 226 17 79 15 720 -3 793
-25 107 -85 181 -186 231 l-45 23 -590 2 c-503 2 -597 0 -639 -13z m257 -588
c33 -31 43 -68 27 -105 -44 -106 -190 -79 -190 35 0 35 5 47 31 68 41 35 96
35 132 2z m430 -1 c50 -50 37 -128 -25 -158 -32 -16 -43 -17 -74 -7 -73 25
-92 105 -37 162 36 38 99 39 136 3z m428 -4 c39 -40 40 -89 1 -132 -24 -26
-36 -32 -72 -32 -36 0 -48 6 -72 32 -38 43 -38 88 1 130 40 43 100 44 142 2z"/>
<path d="M1818 1403 c-4 -220 -5 -230 -31 -285 -49 -109 -127 -182 -233 -218
-53 -18 -86 -20 -434 -20 l-376 0 -28 -29 c-28 -29 -28 -30 -24 -143 3 -95 8
-122 29 -169 42 -89 120 -153 223 -183 l41 -12 3 -144 c4 -224 13 -224 219
-10 l154 159 352 3 352 3 55 26 c94 45 158 126 179 227 7 32 11 183 11 390 0
411 -6 444 -99 539 -70 71 -117 87 -262 91 l-127 4 -4 -229z"/>
</g>
</svg>
