<?xml version="1.0" standalone="no"?>
<!DOCTYPE svg PUBLIC "-//W3C//DTD SVG 20010904//EN"
 "http://www.w3.org/TR/2001/REC-SVG-20010904/DTD/svg10.dtd">
<svg version="1.0" xmlns="http://www.w3.org/2000/svg"
 width="586.000000pt" height="206.000000pt" viewBox="0 0 586.000000 206.000000"
 preserveAspectRatio="xMidYMid meet">

<g transform="translate(0.000000,206.000000) scale(0.100000,-0.100000)"
fill="#000000" stroke="none">
<path d="M4826 2039 c-63 -15 -155 -69 -196 -117 -66 -75 -83 -121 -88 -244
-3 -59 -2 -108 2 -108 20 0 60 38 83 79 15 25 28 48 29 49 1 2 37 -4 79 -13
164 -37 304 -8 407 84 25 22 49 41 52 41 3 0 23 -26 45 -58 40 -60 103 -122
123 -122 17 0 3 136 -21 201 -26 68 -75 124 -121 136 -19 6 -52 22 -73 36 -21
14 -60 30 -88 36 -59 13 -178 13 -233 0z"/>
<path d="M5164 1719 c-10 -11 -52 -36 -93 -57 -73 -36 -77 -37 -190 -37 -64 0
-134 4 -156 8 -40 8 -41 7 -72 -36 -21 -31 -48 -53 -86 -71 -57 -27 -77 -56
-77 -116 0 -46 30 -129 59 -163 15 -17 44 -67 64 -109 46 -99 111 -169 196
-211 58 -28 75 -32 146 -32 65 1 91 5 137 27 97 45 185 144 228 258 8 19 26
49 41 67 57 66 73 196 32 252 -13 16 -23 39 -23 49 0 10 -10 23 -23 29 -34 16
-86 62 -127 115 -37 46 -38 47 -56 27z"/>
<path d="M25 1358 c-3 -7 -4 -159 -3 -338 l3 -325 88 -3 c57 -2 94 1 103 9 11
9 14 48 14 178 l0 166 30 -55 c35 -63 44 -70 87 -70 48 0 62 9 85 54 42 83 43
81 48 -105 l5 -174 88 -3 c57 -2 94 1 103 9 19 16 21 638 2 657 -8 8 -46 12
-104 12 -107 0 -100 5 -169 -127 -20 -40 -43 -73 -51 -73 -7 0 -37 44 -66 98
l-53 97 -103 3 c-77 2 -104 -1 -107 -10z"/>
<path d="M825 1358 c-3 -7 -4 -159 -3 -338 l3 -325 245 0 245 0 0 85 0 85
-142 3 -143 3 0 39 0 39 103 3 102 3 0 80 0 80 -102 3 -103 3 0 34 0 34 143 3
142 3 0 85 0 85 -243 3 c-189 2 -244 0 -247 -10z"/>
<path d="M1435 1357 c-3 -7 -4 -158 -3 -337 l3 -325 97 -3 c117 -3 107 -19
111 188 l2 144 77 -90 77 -91 3 -74 3 -74 88 -3 c57 -2 94 1 103 9 11 9 14 69
14 329 0 260 -3 320 -14 329 -9 8 -46 11 -103 9 l-88 -3 -5 -114 -5 -114 -89
104 c-49 57 -96 110 -105 117 -20 17 -160 16 -166 -1z"/>
<path d="M2104 1357 c-3 -8 -4 -47 -2 -88 l3 -74 82 -3 83 -3 2 -247 3 -247
105 0 105 0 3 247 2 247 83 3 82 3 0 85 0 85 -273 3 c-222 2 -273 0 -278 -11z"/>
<path d="M2765 1358 c-3 -7 -4 -159 -3 -338 l3 -325 88 -3 c57 -2 94 1 103 9
10 8 14 38 14 110 l0 99 74 0 c49 0 78 -4 83 -12 4 -7 10 -56 13 -108 l5 -95
88 -3 c60 -2 94 1 104 10 12 10 14 36 11 143 -3 147 -13 173 -73 202 -32 15
-33 16 -15 35 37 40 37 162 -1 224 -32 53 -54 58 -282 62 -165 3 -208 1 -212
-10z m303 -170 c16 -16 16 -80 0 -96 -7 -7 -31 -12 -55 -12 l-43 0 0 60 0 60
43 0 c24 0 48 -5 55 -12z"/>
<path d="M3437 1364 c-10 -11 -9 -249 2 -276 5 -13 44 -71 87 -128 l79 -105 5
-80 5 -80 105 0 105 0 3 75 3 75 76 104 c41 57 82 119 89 137 15 37 20 250 6
272 -6 9 -34 12 -103 10 l-94 -3 -5 -110 c-4 -99 -8 -114 -33 -152 -36 -57
-58 -56 -94 5 -25 41 -29 59 -33 152 l-5 105 -95 3 c-53 1 -99 0 -103 -4z"/>
<path d="M4609 813 c-220 -63 -372 -183 -455 -358 -51 -107 -76 -213 -77 -335
l-2 -105 318 -8 c175 -5 571 -5 880 0 l562 8 -2 100 c-2 123 -36 265 -88 363
-86 165 -231 273 -449 336 l-79 23 -63 -28 c-134 -61 -269 -61 -398 -1 l-63
29 -84 -24z"/>
</g>
</svg>
