<?xml version="1.0" standalone="no"?>
<!DOCTYPE svg PUBLIC "-//W3C//DTD SVG 20010904//EN"
 "http://www.w3.org/TR/2001/REC-SVG-20010904/DTD/svg10.dtd">
<svg version="1.0" xmlns="http://www.w3.org/2000/svg"
 width="1024.000000pt" height="1024.000000pt" viewBox="0 0 1024.000000 1024.000000"
 preserveAspectRatio="xMidYMid meet">

<g transform="translate(0.000000,1024.000000) scale(0.100000,-0.100000)"
fill="#000000" stroke="none">
<path d="M4960 7810 c-258 -19 -451 -107 -615 -282 -60 -63 -86 -102 -125
-182 -74 -153 -82 -212 -78 -531 1 -145 6 -267 10 -271 4 -4 26 -3 49 2 l42 9
23 86 c27 103 78 215 104 229 13 7 65 7 155 0 398 -28 771 70 1019 269 58 46
83 42 164 -28 149 -128 231 -263 282 -466 11 -43 24 -83 29 -88 4 -4 24 -10
43 -13 45 -8 45 -8 53 206 21 497 -93 791 -316 817 -45 5 -51 9 -74 49 -54 92
-140 151 -258 179 -78 18 -354 26 -507 15z"/>
<path d="M5542 6981 c-69 -51 -237 -132 -339 -165 -180 -56 -261 -68 -525 -73
l-247 -5 -16 -40 c-9 -22 -24 -90 -35 -150 -10 -64 -25 -117 -34 -126 -14 -14
-92 -20 -104 -8 -11 12 -60 -19 -82 -51 -22 -32 -25 -46 -24 -122 2 -134 46
-226 135 -278 20 -12 34 -33 45 -68 86 -260 293 -473 544 -558 225 -77 486
-49 691 73 152 90 303 271 369 441 27 71 40 92 86 133 30 26 62 62 71 80 25
49 43 126 42 186 -1 126 -54 178 -154 155 -52 -11 -75 17 -86 104 -15 125 -48
225 -101 314 -48 79 -152 197 -173 197 -5 -1 -34 -18 -63 -39z"/>
<path d="M4185 4954 c-49 -8 -114 -21 -145 -29 -30 -8 -296 -134 -590 -280
l-535 -265 -110 24 c-511 114 -671 147 -690 142 -27 -7 -40 -36 -60 -134 -8
-41 -38 -166 -65 -279 -28 -113 -50 -220 -50 -238 0 -30 4 -35 43 -49 36 -13
723 -201 917 -251 111 -29 130 -25 469 95 173 60 321 110 328 110 11 0 13
-114 13 -614 l0 -615 22 -15 c20 -14 169 -16 1394 -16 l1371 0 28 22 28 22 -7
607 c-3 334 -3 610 2 613 5 3 58 -13 118 -35 60 -22 165 -60 234 -84 69 -24
163 -57 210 -74 134 -48 127 -49 555 69 99 27 272 74 385 105 246 67 259 72
265 99 3 11 -4 55 -15 96 -23 86 -78 320 -110 463 -18 82 -25 98 -43 102 -23
6 -119 -11 -387 -70 -91 -20 -223 -49 -295 -65 l-130 -28 -521 258 c-287 142
-544 265 -571 274 -109 36 -199 47 -423 53 l-225 5 -80 -31 c-133 -52 -211
-65 -395 -64 -177 0 -259 14 -394 69 -56 23 -70 24 -255 23 -113 -1 -234 -7
-286 -15z"/>
<path d="M1476 4838 c-29 -41 -20 -71 49 -160 46 -61 65 -94 65 -115 0 -38
-33 -55 -81 -43 -309 73 -435 101 -465 102 -46 2 -74 -29 -74 -78 0 -28 -4
-34 -20 -34 -33 0 -70 -44 -70 -82 0 -45 22 -74 81 -103 54 -28 55 -31 34 -59
-8 -11 -15 -30 -15 -43 0 -43 39 -68 140 -93 52 -12 176 -45 275 -72 161 -45
187 -50 250 -45 39 3 94 14 124 23 66 22 64 18 121 266 40 171 42 190 29 215
-21 40 -183 201 -308 306 -54 45 -110 51 -135 15z"/>
<path d="M8570 4758 c-62 -57 -128 -115 -145 -130 -18 -15 -47 -50 -65 -78
-37 -58 -38 -43 20 -305 30 -131 43 -173 59 -186 26 -21 143 -49 203 -49 57 0
584 144 609 166 23 21 25 71 4 101 -15 22 -14 23 43 52 55 28 82 59 82 97 0
29 -29 71 -58 83 -24 10 -31 21 -36 51 -12 76 -46 77 -327 10 -234 -56 -273
-60 -289 -31 -17 33 -12 46 44 119 67 87 76 103 76 141 0 40 -24 61 -69 61
-34 0 -50 -11 -151 -102z"/>
</g>
</svg>
