<?xml version="1.0" standalone="no"?>
<!DOCTYPE svg PUBLIC "-//W3C//DTD SVG 20010904//EN"
 "http://www.w3.org/TR/2001/REC-SVG-20010904/DTD/svg10.dtd">
<svg version="1.0" xmlns="http://www.w3.org/2000/svg"
 width="218.000000pt" height="218.000000pt" viewBox="0 0 218.000000 218.000000"
 preserveAspectRatio="xMidYMid meet">

<g transform="translate(0.000000,218.000000) scale(0.100000,-0.100000)"
fill="#000000" stroke="none">
<path d="M1245 2116 c-292 -56 -459 -219 -504 -492 -9 -54 -10 -87 -1 -133 10
-57 9 -64 -14 -112 -14 -27 -58 -97 -98 -155 -87 -126 -87 -127 27 -176 37
-16 43 -42 20 -85 -22 -41 -16 -55 31 -72 48 -16 104 -50 104 -61 0 -5 -29
-18 -65 -30 -56 -19 -65 -25 -65 -46 0 -13 9 -33 20 -44 17 -17 19 -27 12 -67
-14 -93 -9 -133 20 -158 40 -34 123 -48 237 -40 95 7 98 6 128 -19 39 -33 53
-82 67 -243 l11 -128 443 -3 c510 -3 467 -14 407 107 -100 198 -147 461 -111
611 18 72 30 99 92 195 90 140 124 266 124 455 0 157 -20 252 -77 365 -76 152
-225 265 -419 316 -101 27 -290 34 -389 15z"/>
<path d="M169 1398 c-90 -114 -133 -247 -133 -413 0 -166 43 -299 133 -413 43
-54 82 -69 95 -36 7 18 4 25 -40 80 -72 88 -124 243 -124 369 0 126 52 281
124 369 44 55 47 62 40 80 -13 33 -52 18 -95 -36z"/>
<path d="M296 1310 c-94 -112 -134 -279 -102 -428 34 -161 139 -301 175 -234
8 15 2 29 -29 71 -62 83 -83 149 -83 266 0 115 21 185 79 261 39 51 42 87 8
92 -14 2 -31 -8 -48 -28z"/>
<path d="M423 1216 c-63 -53 -102 -185 -85 -285 13 -72 23 -97 62 -149 25 -35
36 -43 58 -40 36 4 40 31 9 68 -31 37 -67 130 -67 174 0 52 26 125 59 167 36
44 39 64 12 79 -16 8 -25 5 -48 -14z"/>
</g>
</svg>
