<?xml version="1.0" standalone="no"?>
<!DOCTYPE svg PUBLIC "-//W3C//DTD SVG 20010904//EN"
 "http://www.w3.org/TR/2001/REC-SVG-20010904/DTD/svg10.dtd">
<svg version="1.0" xmlns="http://www.w3.org/2000/svg"
 width="469.000000pt" height="79.000000pt" viewBox="0 0 469.000000 79.000000"
 preserveAspectRatio="xMidYMid meet">

<g transform="translate(0.000000,79.000000) scale(0.100000,-0.100000)"
fill="#FFFFFF" stroke="none">
<path d="M4283 761 c-51 -24 -74 -57 -81 -116 -5 -50 7 -58 31 -21 15 22 20
23 54 15 44 -10 101 3 134 30 24 19 24 19 56 -18 l32 -36 1 30 c1 96 -129 162
-227 116z"/>
<path d="M15 698 c-3 -7 -4 -159 -3 -338 l3 -325 88 -3 c57 -2 94 1 103 9 11
9 14 48 14 178 l0 166 30 -55 c35 -63 44 -70 87 -70 48 0 62 9 85 54 42 83 43
81 48 -105 l5 -174 88 -3 c57 -2 94 1 103 9 19 16 21 638 2 657 -8 8 -46 12
-104 12 -107 0 -100 5 -169 -127 -20 -40 -43 -73 -51 -73 -7 0 -37 44 -66 98
l-53 97 -103 3 c-77 2 -104 -1 -107 -10z"/>
<path d="M815 698 c-3 -7 -4 -159 -3 -338 l3 -325 245 0 245 0 0 85 0 85 -142
3 -143 3 0 39 0 39 103 3 102 3 0 80 0 80 -102 3 -103 3 0 34 0 34 143 3 142
3 0 85 0 85 -243 3 c-189 2 -244 0 -247 -10z"/>
<path d="M1425 697 c-3 -7 -4 -158 -3 -337 l3 -325 97 -3 c117 -3 107 -19 111
188 l2 144 77 -90 77 -91 3 -74 3 -74 88 -3 c57 -2 94 1 103 9 11 9 14 69 14
329 0 260 -3 320 -14 329 -9 8 -46 11 -103 9 l-88 -3 -5 -114 -5 -114 -89 104
c-49 57 -96 110 -105 117 -20 17 -160 16 -166 -1z"/>
<path d="M2094 697 c-3 -8 -4 -47 -2 -88 l3 -74 82 -3 83 -3 2 -247 3 -247
105 0 105 0 3 247 2 247 83 3 82 3 0 85 0 85 -273 3 c-222 2 -273 0 -278 -11z"/>
<path d="M2755 698 c-3 -7 -4 -159 -3 -338 l3 -325 88 -3 c57 -2 94 1 103 9
10 8 14 38 14 110 l0 99 74 0 c49 0 78 -4 83 -13 4 -6 10 -55 13 -107 l5 -95
88 -3 c60 -2 94 1 104 10 12 10 14 36 11 143 -3 147 -13 173 -73 202 -32 15
-33 16 -15 35 37 40 37 162 -1 224 -32 53 -54 58 -282 62 -165 3 -208 1 -212
-10z m303 -170 c16 -16 16 -80 0 -96 -7 -7 -31 -12 -55 -12 l-43 0 0 60 0 60
43 0 c24 0 48 -5 55 -12z"/>
<path d="M3427 704 c-10 -11 -9 -249 2 -276 5 -13 44 -71 87 -128 l79 -105 5
-80 5 -80 105 0 105 0 3 75 3 75 76 104 c41 57 82 119 89 137 15 37 20 250 6
272 -6 9 -34 12 -103 10 l-94 -3 -5 -110 c-4 -99 -8 -114 -33 -152 -36 -57
-58 -56 -94 5 -25 41 -29 59 -33 152 l-5 105 -95 3 c-53 1 -99 0 -103 -4z"/>
<path d="M4417 643 c-12 -12 -38 -19 -89 -21 -59 -4 -78 -9 -105 -31 -42 -33
-43 -64 -2 -136 42 -74 80 -105 131 -105 57 0 95 26 134 93 57 97 55 119 -14
184 -19 18 -35 33 -36 33 -1 0 -9 -8 -19 -17z"/>
<path d="M4195 305 c-102 -41 -165 -136 -165 -247 l0 -38 324 0 c179 0 327 4
330 9 9 14 -14 122 -34 161 -23 44 -63 82 -117 109 -50 25 -78 28 -116 12 -38
-15 -97 -13 -127 4 -32 18 -25 19 -95 -10z"/>
</g>
</svg>
