<?xml version="1.0" standalone="no"?>
<!DOCTYPE svg PUBLIC "-//W3C//DTD SVG 20010904//EN"
 "http://www.w3.org/TR/2001/REC-SVG-20010904/DTD/svg10.dtd">
<svg version="1.0" xmlns="http://www.w3.org/2000/svg"
 width="475.000000pt" height="124.000000pt" viewBox="0 0 475.000000 124.000000"
 preserveAspectRatio="xMidYMid meet">

<g transform="translate(0.000000,124.000000) scale(0.100000,-0.100000)"
fill="#FFFFFF" stroke="none">
<path d="M4085 1168 c-82 -29 -134 -103 -135 -190 0 -55 11 -60 41 -19 21 29
23 29 89 24 89 -8 130 1 176 38 l38 30 39 -46 c21 -25 43 -45 48 -45 17 0 9
66 -13 110 -42 83 -184 132 -283 98z"/>
<path d="M4262 990 c-36 -30 -99 -43 -174 -37 -52 5 -68 3 -72 -9 -3 -8 -22
-24 -42 -36 -19 -11 -39 -31 -44 -44 -11 -28 3 -83 33 -129 12 -18 33 -51 46
-73 54 -91 175 -121 257 -66 47 32 53 40 104 132 43 76 51 122 30 162 -10 19
-106 121 -113 120 -1 -1 -13 -9 -25 -20z"/>
<path d="M84 881 c-9 -9 -3 -21 11 -21 13 0 15 -48 15 -370 0 -322 -2 -370
-15 -370 -8 0 -15 -4 -15 -10 0 -6 32 -10 75 -10 43 0 75 4 75 10 0 6 -7 10
-15 10 -13 0 -15 48 -15 370 0 322 2 370 15 370 8 0 15 4 15 9 0 9 -138 20
-146 12z"/>
<path d="M1743 882 c-21 -3 -23 -9 -23 -68 l0 -64 45 0 45 0 0 64 c0 58 -2 64
-22 68 -13 2 -33 2 -45 0z"/>
<path d="M2660 873 c-56 -29 -72 -72 -67 -176 4 -78 8 -94 38 -140 18 -29 54
-88 81 -132 l49 -79 -3 -111 c-3 -108 -3 -110 -27 -113 -40 -6 -51 21 -51 125
l0 93 -45 0 -45 0 0 -70 c0 -133 41 -176 164 -171 18 1 41 14 63 36 l35 35 -4
107 -3 108 -69 108 c-84 132 -95 161 -96 260 0 84 11 117 38 117 35 0 42 -21
42 -122 l0 -98 45 0 45 0 0 80 c0 77 -1 82 -33 116 -41 45 -102 55 -157 27z"/>
<path d="M643 863 l-33 -17 0 -83 c0 -67 -3 -83 -15 -83 -8 0 -15 -4 -15 -10
0 -5 7 -10 15 -10 13 0 15 -33 15 -235 0 -263 3 -280 64 -309 37 -18 86 -21
86 -7 0 5 -12 11 -27 13 l-28 3 -3 268 -2 267 30 0 c16 0 30 5 30 10 0 6 -13
10 -30 10 l-30 0 0 100 c0 109 -1 111 -57 83z"/>
<path d="M2920 815 l0 -65 45 0 45 0 0 65 0 65 -45 0 -45 0 0 -65z"/>
<path d="M417 684 c-4 -4 -40 -6 -82 -5 -46 1 -75 -2 -75 -9 0 -5 7 -10 15
-10 13 0 15 -37 15 -270 0 -233 -2 -270 -15 -270 -8 0 -15 -4 -15 -10 0 -6 32
-10 75 -10 43 0 75 4 75 10 0 6 -7 10 -15 10 -13 0 -15 34 -13 268 l3 267 30
0 30 0 3 -277 2 -278 60 0 c33 0 60 4 60 10 0 6 -7 10 -15 10 -13 0 -15 33
-15 240 0 264 -6 302 -55 320 -30 11 -59 13 -68 4z"/>
<path d="M870 673 c-62 -32 -70 -62 -70 -281 0 -218 7 -250 61 -278 69 -35
159 -11 185 51 8 19 14 53 14 75 l0 40 -45 0 -45 0 0 -64 c0 -35 -3 -71 -6
-80 -8 -21 -60 -21 -68 0 -3 9 -6 67 -6 130 l0 114 85 0 85 0 0 100 c0 112
-14 159 -54 185 -39 26 -95 29 -136 8z m88 -15 c8 -8 12 -53 12 -135 l0 -123
-40 0 -40 0 0 125 c0 108 2 125 18 134 23 14 36 13 50 -1z"/>
<path d="M1256 683 c-3 -4 -40 -6 -81 -4 -47 1 -75 -2 -75 -9 0 -5 5 -10 10
-10 6 0 10 -97 10 -270 0 -173 -4 -270 -10 -270 -5 0 -10 -4 -10 -10 0 -6 30
-10 70 -10 40 0 70 4 70 10 0 6 -7 10 -15 10 -13 0 -15 34 -13 268 l3 267 28
3 27 3 0 -80 0 -81 45 0 45 0 0 60 c0 32 -5 70 -11 83 -16 34 -73 59 -93 40z"/>
<path d="M1944 676 c-62 -28 -64 -37 -64 -287 l0 -227 35 -31 c36 -31 54 -36
110 -32 65 6 105 56 105 134 l0 47 -45 0 -44 0 -3 -77 c-3 -78 -3 -78 -32 -81
-16 -2 -32 2 -37 10 -5 7 -9 66 -9 131 l0 117 85 0 85 0 0 108 c0 65 -5 116
-13 131 -29 57 -113 85 -173 57z m84 -18 c8 -8 12 -53 12 -136 l0 -123 -37 3
-38 3 -3 116 c-2 97 0 120 13 133 19 19 37 20 53 4z"/>
<path d="M3226 683 c-3 -4 -42 -6 -86 -4 -51 1 -80 -2 -80 -9 0 -5 7 -10 15
-10 13 0 15 -37 15 -270 0 -233 -2 -270 -15 -270 -8 0 -15 -4 -15 -10 0 -6 32
-10 75 -10 43 0 75 4 75 10 0 6 -7 10 -15 10 -13 0 -15 34 -13 268 l3 267 30
0 30 0 3 -277 2 -278 60 0 c33 0 60 4 60 10 0 6 -7 10 -15 10 -12 0 -15 39
-17 258 -2 144 1 263 6 270 5 7 21 12 35 10 l26 -3 3 -277 2 -278 60 0 c33 0
60 4 60 10 0 6 -7 10 -15 10 -13 0 -15 35 -15 254 0 240 -1 255 -20 279 -27
34 -76 43 -123 23 -32 -13 -40 -13 -64 -1 -30 16 -56 19 -67 8z"/>
<path d="M1380 670 c0 -5 7 -10 15 -10 19 0 19 -2 55 -280 39 -305 32 -280 80
-280 22 0 40 3 40 8 0 4 16 126 35 271 19 145 35 267 35 272 0 5 7 9 15 9 8 0
15 5 15 10 0 6 -20 10 -45 10 -25 0 -45 -4 -45 -10 0 -5 7 -10 15 -10 19 0 19
7 -5 -185 -32 -253 -31 -252 -56 -40 -28 232 -27 225 -9 225 8 0 15 5 15 10 0
6 -33 10 -80 10 -47 0 -80 -4 -80 -10z"/>
<path d="M1690 670 c0 -5 7 -10 15 -10 13 0 15 -37 15 -270 0 -233 -2 -270
-15 -270 -8 0 -15 -4 -15 -10 0 -6 32 -10 75 -10 43 0 75 4 75 10 0 6 -7 10
-15 10 -13 0 -15 38 -15 280 l0 280 -60 0 c-33 0 -60 -4 -60 -10z"/>
<path d="M2160 670 c0 -5 7 -10 15 -10 8 0 15 -1 15 -2 0 -2 11 -120 25 -263
14 -143 25 -268 25 -277 0 -14 9 -18 44 -18 l43 0 6 88 c4 48 10 134 14 192 7
104 7 104 14 45 4 -33 12 -120 19 -192 l12 -133 44 0 c24 0 44 3 44 8 0 4 11
124 25 267 14 143 25 266 25 273 0 6 7 12 15 12 8 0 15 5 15 10 0 6 -20 10
-45 10 -25 0 -45 -4 -45 -10 0 -5 7 -10 16 -10 12 0 14 -7 10 -27 -2 -16 -10
-103 -17 -195 -7 -92 -14 -166 -15 -165 -2 2 -10 84 -19 182 -21 239 -17 225
-64 225 l-39 0 -6 -52 c-3 -29 -8 -105 -12 -168 -10 -167 -19 -184 -28 -50 -3
63 -9 145 -13 183 -5 58 -4 67 11 67 9 0 16 5 16 10 0 6 -32 10 -75 10 -43 0
-75 -4 -75 -10z"/>
<path d="M2900 670 c0 -5 5 -10 10 -10 6 0 10 -97 10 -270 0 -173 -4 -270 -10
-270 -5 0 -10 -4 -10 -10 0 -6 30 -10 70 -10 40 0 70 4 70 10 0 6 -7 10 -15
10 -13 0 -15 38 -15 280 l0 280 -55 0 c-30 0 -55 -4 -55 -10z"/>
<path d="M4265 519 c-51 -23 -145 -25 -187 -3 -41 21 -94 14 -174 -26 -120
-59 -186 -165 -201 -323 l-6 -67 472 0 471 0 0 38 c0 57 -35 185 -63 229 -46
73 -122 126 -222 155 -46 14 -53 13 -90 -3z"/>
</g>
</svg>
