<?xml version="1.0" standalone="no"?>
<!DOCTYPE svg PUBLIC "-//W3C//DTD SVG 20010904//EN"
 "http://www.w3.org/TR/2001/REC-SVG-20010904/DTD/svg10.dtd">
<svg version="1.0" xmlns="http://www.w3.org/2000/svg"
 width="677.000000pt" height="369.000000pt" viewBox="0 0 677.000000 369.000000"
 preserveAspectRatio="xMidYMid meet">

<g transform="translate(0.000000,369.000000) scale(0.100000,-0.100000)"
fill="#FF0000" stroke="none">
<path d="M3285 3335 c-145 -31 -230 -94 -290 -213 -37 -75 -48 -142 -43 -273
5 -113 4 -116 -15 -111 -26 7 -47 -22 -47 -62 0 -38 31 -147 56 -199 10 -21
27 -40 39 -43 17 -4 24 -20 37 -73 9 -37 30 -91 48 -120 30 -49 32 -57 27
-115 -10 -104 -12 -106 -149 -174 -200 -99 -290 -139 -338 -152 -78 -21 -183
-75 -226 -117 -56 -55 -98 -132 -129 -238 -28 -92 -29 -105 -23 -410 1 -16
-11 -109 -26 -205 -15 -96 -29 -240 -32 -320 -5 -120 -11 -162 -34 -240 -40
-133 -60 -214 -60 -244 l0 -26 240 0 240 0 0 117 c0 116 12 172 78 353 7 20
28 -171 37 -337 l8 -133 731 0 731 0 0 127 c0 120 26 322 46 354 5 9 17 8 50
-5 27 -11 95 -21 192 -27 171 -12 181 -8 218 64 30 58 68 199 75 277 10 116
-47 327 -125 459 -26 44 -31 62 -31 119 -1 173 -79 348 -193 429 -50 36 -171
79 -250 89 -49 6 -113 28 -314 106 -93 37 -102 49 -110 143 -5 53 -2 65 21 99
26 39 41 82 52 149 5 28 14 42 34 52 28 15 45 48 74 144 29 99 15 171 -32 159
-21 -6 -21 -3 -21 121 0 141 -14 216 -54 283 -61 104 -150 165 -285 193 -87
18 -126 18 -207 0z m250 -1566 c32 -28 38 -30 66 -20 50 17 73 13 120 -21 37
-28 53 -32 103 -33 52 0 61 -3 81 -29 37 -47 74 -127 85 -186 5 -30 17 -96 27
-146 14 -77 15 -100 5 -145 -26 -115 -82 -166 -197 -180 -42 -5 -97 -18 -123
-28 -69 -27 -122 -34 -172 -21 -25 6 -96 15 -159 19 -102 6 -116 9 -132 30
-30 36 -42 95 -29 142 9 34 8 48 -11 97 -18 46 -23 85 -27 199 -6 174 -1 202
43 249 34 35 37 37 87 31 50 -6 52 -6 88 33 48 52 92 55 145 9z"/>
<path d="M3403 1735 c-44 -45 -44 -45 -97 -39 -53 6 -53 6 -82 -32 -29 -37
-29 -38 -28 -173 1 -127 9 -186 36 -254 13 -34 47 -43 100 -28 30 9 38 16 33
29 -21 57 -25 342 -4 342 5 0 9 -46 10 -102 0 -148 13 -257 33 -276 17 -17 62
-21 109 -9 l28 8 -7 83 c-8 96 3 276 17 276 5 0 8 -70 7 -165 -2 -147 0 -166
17 -185 25 -27 88 -27 115 0 17 17 20 34 21 128 0 59 7 130 15 157 12 46 13
40 8 -96 l-6 -146 28 -22 c34 -26 69 -27 91 -1 19 22 53 147 53 197 0 17 5 35
10 38 6 4 10 -5 10 -19 0 -35 15 -33 30 5 16 39 2 92 -46 166 l-34 53 -56 0
c-60 0 -91 12 -113 43 -12 17 -21 19 -80 13 -64 -7 -69 -6 -105 24 -22 16 -45
30 -53 30 -9 0 -35 -20 -60 -45z"/>
<path d="M3238 1156 c-6 -10 -8 -39 -5 -65 7 -66 30 -81 127 -81 102 0 106 2
102 48 -3 28 1 42 17 56 11 10 25 15 32 10 9 -5 6 -10 -9 -15 -27 -10 -30 -60
-6 -80 25 -21 49 2 48 45 -2 66 -34 81 -199 94 -90 7 -97 6 -107 -12z"/>
</g>
</svg>
